<svg xmlns="http://www.w3.org/2000/svg" viewBox="0 0 64 64">
  <rect width="64" height="64" rx="12" fill="#f2c94c"/>
  <path d="M18 45c-3 0-5.4-.9-7.1-2.7C9.1 40.5 8.2 38 8.2 35v-6c0-3 .9-5.5 2.7-7.3 1.7-1.8 4.1-2.7 7.1-2.7h8.4v7H19c-1.2 0-2.1.3-2.7 1-.6.6-.9 1.5-.9 2.7v4.7c0 1.2.3 2.1.9 2.7.6.7 1.5 1 2.7 1h7.4v7H18z" fill="#101820"/>
  <path d="M35.2 45V25.9h-4.4V19h4.4v-1.3c0-3.2.9-5.7 2.7-7.4 1.8-1.7 4.3-2.5 7.4-2.5h9.3v6.8h-8.4c-1.2 0-2.1.3-2.7.8-.6.6-.9 1.4-.9 2.6v1h10.9v6.9H42.6V45h-7.4z" fill="#101820"/>
</svg>
